<?xml version="1.0" encoding="UTF-8"?>
<svg id="Layer_1_copy" xmlns="http://www.w3.org/2000/svg" version="1.1" viewBox="0 0 648 648">
  <!-- Generator: Adobe Illustrator 29.8.2, SVG Export Plug-In . SVG Version: 2.1.1 Build 3)  -->
  <defs>
    <style>
      .st0 {
        fill: #f57b68;
      }

      .st1 {
        fill: #293f56;
      }
    </style>
  </defs>
  <path class="st0" d="M307.89,72.94l-1,502c-79.23-1.15-148.28-20.03-205.53-76.97C2.75,399.88,10.88,224.85,116.41,134.97c56.5-48.12,118.7-60.97,191.47-62.03h.01Z"/>
  <path class="st1" d="M307.89,72.94c45.49-.66,90.97-2.09,135,10.5,91.74,26.25,163.86,109.32,170.99,206.01l2.03,284.91c-102.92-.06-206.09,2.06-309.02.58l1-502h0ZM574.89,288.94c-3.18-31.57-15.67-62.74-34.18-88.32-12.13-16.76-25.33-29.72-41.9-42.1-43.21-32.27-95.91-47.13-149.91-45.59v176h226-.01ZM438.89,330.94h-90v200h90v-200ZM574.89,330.94h-94v200h94v-200Z"/>
</svg>