<?xml version="1.0" encoding="UTF-8"?>
<!-- Generated by Pixelmator Pro 3.7 -->
<svg width="648" height="648" viewBox="0 0 648 648" xmlns="http://www.w3.org/2000/svg">
    <path id="path1" fill="#f57b68" stroke="none" d="M 307.890015 52.940002 L 306.890015 554.940002 C 227.660004 553.789978 158.609985 534.909973 101.359985 477.969971 C 2.75 379.880005 10.880005 204.849976 116.410004 114.969971 C 172.910004 66.849976 235.109985 54 307.880005 52.940002 Z"/>
    <path id="path2" fill="#293f56" stroke="none" d="M 307.890015 52.940002 C 353.380005 52.280029 398.859985 50.849976 442.890015 63.440002 C 534.630005 89.690002 606.75 172.76001 613.880005 269.450012 L 615.909973 554.359985 C 512.98999 554.299988 409.820007 556.419983 306.890015 554.940002 L 307.890015 52.940002 Z M 574.890015 268.940002 C 571.710022 237.369995 559.219971 206.200012 540.710022 180.619995 C 528.580017 163.859985 515.380005 150.900024 498.809998 138.52002 C 455.599976 106.25 402.900024 91.390015 348.900024 92.929993 L 348.900024 268.929993 L 574.900024 268.929993 Z M 438.890015 310.940002 L 348.890015 310.940002 L 348.890015 510.940002 L 438.890015 510.940002 L 438.890015 310.940002 Z M 574.890015 310.940002 L 480.890015 310.940002 L 480.890015 510.940002 L 574.890015 510.940002 L 574.890015 310.940002 Z"/>
</svg>
